# Wavefront OBJ exported by MilkShape 3D

v -0.126785 -0.708187 0.000000
v 0.110058 -0.708187 0.000000
v -0.126784 -0.659566 0.306984
v 0.110058 -0.659566 0.306984
v -0.126784 -0.518461 0.583918
v 0.110058 -0.518461 0.583918
v -0.126784 -0.298684 0.803694
v 0.110058 -0.298684 0.803694
v -0.126784 -0.021750 0.944799
v 0.110058 -0.021750 0.944799
v -0.126784 0.285234 0.993421
v 0.110058 0.285234 0.993421
v -0.126784 0.592218 0.944799
v 0.110058 0.592218 0.944799
v -0.126784 0.869152 0.803694
v 0.110058 0.869152 0.803694
v -0.126784 1.088928 0.583918
v 0.110058 1.088928 0.583918
v -0.126784 1.088928 -0.583918
v 0.110058 1.088928 -0.583918
v -0.126784 0.869152 -0.803694
v 0.110058 0.869152 -0.803694
v -0.126784 0.592218 -0.944799
v 0.110058 0.592218 -0.944799
v -0.126784 0.285234 -0.993421
v 0.110058 0.285234 -0.993421
v -0.126784 -0.021750 -0.944799
v 0.110058 -0.021750 -0.944799
v -0.126784 -0.298684 -0.803694
v 0.110058 -0.298684 -0.803694
v -0.126784 -0.518461 -0.583918
v 0.110058 -0.518461 -0.583918
v -0.126784 -0.659566 -0.306984
v 0.110058 -0.659566 -0.306984
v -0.126770 1.288928 0.603923
v -0.126770 1.430041 0.327007
v -0.126770 1.288928 -0.563923
v 0.110046 1.288928 0.603923
v 0.110046 1.288928 -0.563923
v 0.110046 1.430041 0.327007
v -0.126770 1.430041 -0.287007
v 0.110046 1.430041 -0.287007
v -0.126770 1.478625 0.020000
v 0.110046 1.478625 0.020000
v 0.200000 -4.793056 0.002582
v 0.200000 -0.493055 0.002582
v 0.190211 -4.793056 0.064386
v 0.190211 -0.493055 0.064386
v 0.161803 -4.793056 0.120139
v 0.161803 -0.493055 0.120139
v 0.117557 -4.793056 0.164386
v 0.117557 -0.493055 0.164386
v 0.061803 -4.793056 0.192794
v 0.061803 -0.493055 0.192794
v 0.000000 -4.793056 0.202582
v 0.000000 -0.493055 0.202582
v -0.061803 -4.793056 0.192794
v -0.061803 -0.493055 0.192794
v -0.117557 -4.793056 0.164386
v -0.117557 -0.493055 0.164386
v -0.161803 -4.793056 0.120139
v -0.161803 -0.493055 0.120139
v -0.190211 -4.793056 0.064386
v -0.190211 -0.493055 0.064386
v -0.200000 -4.793056 0.002582
v -0.200000 -0.493055 0.002582
v -0.190211 -4.793056 -0.059221
v -0.190211 -0.493055 -0.059221
v -0.161803 -4.793056 -0.114975
v -0.161803 -0.493055 -0.114975
v -0.117557 -4.793056 -0.159221
v -0.117557 -0.493055 -0.159221
v -0.061803 -4.793056 -0.187629
v -0.061803 -0.493055 -0.187629
v -0.000000 -4.793056 -0.197418
v -0.000000 -0.493055 -0.197418
v 0.061803 -4.793056 -0.187629
v 0.061803 -0.493055 -0.187629
v 0.117557 -4.793056 -0.159221
v 0.117557 -0.493055 -0.159221
v 0.161803 -4.793056 -0.114975
v 0.161803 -0.493055 -0.114975
v 0.190211 -4.793056 -0.059221
v 0.190211 -0.493055 -0.059221
v 0.109877 -0.335147 0.002570
v 0.103977 -0.335147 -0.034514
v 0.103977 -0.335147 0.039690
v 0.086938 -0.335147 0.073145
v 0.086938 -0.335147 -0.068006
v 0.060371 -0.335147 0.099712
v 0.060371 -0.335147 -0.094573
v 0.026916 -0.335147 0.116788
v 0.026916 -0.335147 -0.111612
v -0.010204 -0.335147 0.122651
v -0.010204 -0.335147 -0.117475
v -0.047324 -0.335147 0.116788
v -0.047324 -0.335147 -0.111612
v -0.080780 -0.335147 0.099712
v -0.080780 -0.335147 -0.094573
v -0.107346 -0.335147 0.073145
v -0.107346 -0.335147 -0.068006
v -0.124385 -0.335147 0.039690
v -0.124385 -0.335147 -0.034514
v -0.130285 -0.335147 0.002570
v -0.119156 -4.293056 -0.140404
v -0.119156 -4.533055 -0.140404
v 0.119156 -4.293056 -0.140404
v 0.119156 -4.533055 -0.140404
v 0.119156 -4.293056 -0.994431
v 0.119156 -4.533055 -0.994431
v -0.119156 -4.293056 -0.994431
v -0.119156 -4.533055 -0.994431
v -0.119156 -3.853056 -0.140404
v -0.119156 -4.093056 -0.140404
v 0.119156 -3.853056 -0.140404
v 0.119156 -4.093056 -0.140404
v 0.119156 -3.853056 -0.994431
v 0.119156 -4.093056 -0.994431
v -0.119156 -3.853056 -0.994431
v -0.119156 -4.093056 -0.994431
# 120 vertices

vt 0.000000 1.000000
vt 0.000000 0.000000
vt 0.050000 0.000000
vt 0.050000 1.000000
vt 0.100000 1.000000
vt 0.100000 0.000000
vt 0.150000 0.000000
vt 0.150000 1.000000
vt 0.200000 1.000000
vt 0.200000 0.000000
vt 0.250000 0.000000
vt 0.250000 1.000000
vt 0.300000 1.000000
vt 0.300000 0.000000
vt 0.350000 0.000000
vt 0.350000 1.000000
vt 0.400000 1.000000
vt 0.400000 0.000000
vt 0.450000 0.000000
vt 0.450000 1.000000
vt 0.500000 1.000000
vt 0.500000 0.000000
vt 0.550000 0.000000
vt 0.550000 1.000000
vt 0.600000 1.000000
vt 0.600000 0.000000
vt 0.650000 0.000000
vt 0.650000 1.000000
vt 0.700000 1.000000
vt 0.700000 0.000000
vt 0.750000 0.000000
vt 0.750000 1.000000
vt 0.800000 1.000000
vt 0.800000 0.000000
vt 0.850000 0.000000
vt 0.850000 1.000000
vt 0.900000 1.000000
vt 0.900000 0.000000
vt 0.950000 0.000000
vt 0.950000 1.000000
vt 1.000000 1.000000
vt 1.000000 0.000000
# 42 texture coordinates

vn -1.000000 0.000002 0.000000
vn 1.000000 -0.000001 0.000000
vn -0.894427 -0.044511 0.444993
vn 0.707107 -0.070378 0.703596
vn -0.447214 0.088976 -0.889991
vn 0.707107 0.070342 -0.703599
vn -0.447214 -0.089022 0.889986
vn -0.894427 0.044488 -0.444995
vn 0.000000 -1.000000 0.000000
vn 0.000000 -0.951056 0.309017
vn 0.000000 -0.809017 0.587785
vn 0.000000 -0.587785 0.809017
vn 0.000000 -0.309017 0.951056
vn 0.000000 0.000000 1.000000
vn 0.000000 0.309017 0.951056
vn 0.000000 0.587785 0.809017
vn 0.000000 0.707106 0.707107
vn 0.000000 0.890984 0.454035
vn 0.000000 0.951069 0.308978
vn 0.000000 1.000000 0.000000
vn 0.000000 0.951069 -0.308978
vn 0.000000 0.890984 -0.454035
vn 0.000000 0.707107 -0.707107
vn 0.000000 0.587785 -0.809017
vn 0.000000 0.309017 -0.951056
vn 0.000000 0.000000 -1.000000
vn 0.000000 -0.309017 -0.951056
vn 0.000000 -0.587785 -0.809017
vn 0.000000 -0.809017 -0.587785
vn 0.000000 -0.951056 -0.309017
vn 0.951057 0.000000 0.309017
vn 0.809017 0.000000 0.587785
vn 0.587785 0.000000 0.809017
vn 0.309017 0.000000 0.951057
vn -0.309017 0.000000 0.951057
vn -0.587785 0.000000 0.809017
vn -0.809017 0.000000 0.587785
vn -0.951057 0.000000 0.309017
vn -0.951057 0.000000 -0.309017
vn -0.809017 0.000000 -0.587785
vn -0.587785 0.000000 -0.809017
vn -0.309017 0.000000 -0.951057
vn 0.309017 0.000000 -0.951057
vn 0.587785 0.000000 -0.809017
vn 0.809017 0.000000 -0.587785
vn 0.951057 0.000000 -0.309017
vn 0.867558 0.495219 -0.045846
vn 0.867568 0.495190 0.045958
vn 0.839912 0.493848 -0.225081
vn 0.812354 0.492436 -0.312391
vn 0.839950 0.493825 0.224993
vn 0.812363 0.492467 0.312318
vn 0.731872 0.488424 0.475189
vn 0.678903 0.485732 0.550595
vn 0.731960 0.488385 -0.475094
vn 0.679039 0.485674 -0.550478
vn 0.552400 0.479358 0.681961
vn 0.478640 0.475573 0.738061
vn 0.552270 0.479270 -0.682128
vn 0.478442 0.475519 -0.738224
vn 0.316758 0.467346 0.825380
vn 0.228511 0.462783 0.856513
vn 0.316646 0.467315 -0.825440
vn 0.228456 0.462843 -0.856495
vn 0.046485 0.453488 0.890049
vn -0.047496 0.448648 0.892445
vn 0.046355 0.453551 -0.890024
vn -0.047621 0.448674 -0.892426
vn -0.232740 0.439081 0.867779
vn -0.323766 0.434325 0.840558
vn -0.232530 0.439120 -0.867815
vn -0.323401 0.434343 -0.840689
vn -0.493079 0.425539 0.758808
vn -0.571266 0.421496 0.704270
vn -0.492866 0.425524 -0.758955
vn -0.571253 0.421406 -0.704334
vn -0.707277 0.414372 0.572761
vn -0.764809 0.411337 0.495852
vn -0.707270 0.414297 -0.572824
vn -0.764889 0.411316 -0.495746
vn -0.852765 0.406713 0.327685
vn -0.883209 0.405094 0.236307
vn -0.852871 0.406713 -0.327406
vn -0.883257 0.405066 -0.236174
vn -0.913720 0.403445 -0.048451
vn -0.913723 0.403470 0.048192
# 86 normals

g Cylinder08
s 2
f 1/1/1 3/1/1 33/1/1
f 2/1/2 34/1/2 4/1/2
f 3/1/1 5/1/1 33/1/1
f 4/1/2 34/1/2 6/1/2
f 33/1/1 5/1/1 31/1/1
f 34/1/2 32/1/2 6/1/2
f 5/1/1 7/1/1 31/1/1
f 6/1/2 32/1/2 8/1/2
f 31/1/1 7/1/1 29/1/1
f 32/1/2 30/1/2 8/1/2
f 7/1/1 9/1/1 29/1/1
f 8/1/2 30/1/2 10/1/2
f 29/1/1 9/1/1 27/1/1
f 30/1/2 28/1/2 10/1/2
f 9/1/1 11/1/1 27/1/1
f 10/1/2 28/1/2 12/1/2
f 27/1/1 11/1/1 25/1/1
f 28/1/2 26/1/2 12/1/2
f 11/1/1 13/1/1 25/1/1
f 12/1/2 26/1/2 14/1/2
f 25/1/1 13/1/1 23/1/1
f 26/1/2 24/1/2 14/1/2
f 13/1/1 15/1/1 23/1/1
f 14/1/2 24/1/2 16/1/2
f 23/1/1 15/1/1 21/1/1
f 24/1/2 22/1/2 16/1/2
f 15/1/1 17/1/3 21/1/1
f 16/1/2 22/1/2 18/1/4
f 21/1/1 17/1/3 19/1/5
f 22/1/2 20/1/6 18/1/4
f 35/1/7 36/1/1 37/1/8
f 38/1/4 39/1/6 40/1/2
f 37/1/8 36/1/1 41/1/1
f 39/1/6 42/1/2 40/1/2
f 36/1/1 43/1/1 41/1/1
f 40/1/2 42/1/2 44/1/2
s 1
f 1/2/9 2/1/9 3/3/10
f 2/1/9 4/4/10 3/3/10
f 3/3/10 4/4/10 6/5/11
f 3/3/10 6/5/11 5/6/11
f 5/6/11 6/5/11 7/7/12
f 6/5/11 8/8/12 7/7/12
f 7/7/12 8/8/12 10/9/13
f 7/7/12 10/9/13 9/10/13
f 9/10/13 10/9/13 11/11/14
f 10/9/13 12/12/14 11/11/14
f 11/11/14 12/12/14 14/13/15
f 11/11/14 14/13/15 13/14/15
f 13/14/15 14/13/15 15/15/16
f 14/13/15 16/16/16 15/15/16
f 15/15/16 16/16/16 18/17/17
f 15/15/16 18/17/17 17/18/17
f 35/18/18 38/17/18 36/19/19
f 38/17/18 40/20/19 36/19/19
f 36/19/19 40/20/19 44/21/20
f 36/19/19 44/21/20 43/22/20
f 43/22/20 44/21/20 41/23/21
f 44/21/20 42/24/21 41/23/21
f 41/23/21 42/24/21 39/25/22
f 41/23/21 39/25/22 37/26/22
f 19/26/23 20/25/23 21/27/24
f 20/25/23 22/28/24 21/27/24
f 21/27/24 22/28/24 24/29/25
f 21/27/24 24/29/25 23/30/25
f 23/30/25 24/29/25 25/31/26
f 24/29/25 26/32/26 25/31/26
f 25/31/26 26/32/26 28/33/27
f 25/31/26 28/33/27 27/34/27
f 27/34/27 28/33/27 29/35/28
f 28/33/27 30/36/28 29/35/28
f 29/35/28 30/36/28 32/37/29
f 29/35/28 32/37/29 31/38/29
f 31/38/29 32/37/29 33/39/30
f 32/37/29 34/40/30 33/39/30
f 33/39/30 34/40/30 2/41/9
f 33/39/30 2/41/9 1/42/9
s 3
f 37/1/1 19/1/1 17/1/1
f 37/1/1 17/1/1 35/1/1
f 38/1/2 18/1/2 20/1/2
f 38/1/2 20/1/2 39/1/2
s 2
f 35/1/7 17/1/3 18/1/4
f 35/1/7 18/1/4 38/1/4
f 39/1/6 20/1/6 19/1/5
f 39/1/6 19/1/5 37/1/8
# 84 triangles in group

g Cylinder10
f 45/1/9 47/1/9 83/1/9
f 85/1/20 86/1/20 87/1/20
f 47/1/9 49/1/9 83/1/9
f 87/1/20 86/1/20 88/1/20
f 83/1/9 49/1/9 81/1/9
f 86/1/20 89/1/20 88/1/20
f 49/1/9 51/1/9 81/1/9
f 88/1/20 89/1/20 90/1/20
f 81/1/9 51/1/9 79/1/9
f 89/1/20 91/1/20 90/1/20
f 51/1/9 53/1/9 79/1/9
f 90/1/20 91/1/20 92/1/20
f 79/1/9 53/1/9 77/1/9
f 91/1/20 93/1/20 92/1/20
f 53/1/9 55/1/9 77/1/9
f 92/1/20 93/1/20 94/1/20
f 77/1/9 55/1/9 75/1/9
f 93/1/20 95/1/20 94/1/20
f 55/1/9 57/1/9 75/1/9
f 94/1/20 95/1/20 96/1/20
f 75/1/9 57/1/9 73/1/9
f 95/1/20 97/1/20 96/1/20
f 57/1/9 59/1/9 73/1/9
f 96/1/20 97/1/20 98/1/20
f 73/1/9 59/1/9 71/1/9
f 97/1/20 99/1/20 98/1/20
f 59/1/9 61/1/9 71/1/9
f 98/1/20 99/1/20 100/1/20
f 71/1/9 61/1/9 69/1/9
f 99/1/20 101/1/20 100/1/20
f 61/1/9 63/1/9 69/1/9
f 100/1/20 101/1/20 102/1/20
f 69/1/9 63/1/9 67/1/9
f 101/1/20 103/1/20 102/1/20
f 63/1/9 65/1/9 67/1/9
f 102/1/20 103/1/20 104/1/20
s 1
f 45/2/2 46/1/2 47/3/31
f 46/1/2 48/4/31 47/3/31
f 47/3/31 48/4/31 50/5/32
f 47/3/31 50/5/32 49/6/32
f 49/6/32 50/5/32 51/7/33
f 50/5/32 52/8/33 51/7/33
f 51/7/33 52/8/33 54/9/34
f 51/7/33 54/9/34 53/10/34
f 53/10/34 54/9/34 55/11/14
f 54/9/34 56/12/14 55/11/14
f 55/11/14 56/12/14 58/13/35
f 55/11/14 58/13/35 57/14/35
f 57/14/35 58/13/35 59/15/36
f 58/13/35 60/16/36 59/15/36
f 59/15/36 60/16/36 62/17/37
f 59/15/36 62/17/37 61/18/37
f 61/18/37 62/17/37 63/19/38
f 62/17/37 64/20/38 63/19/38
f 63/19/38 64/20/38 66/21/1
f 63/19/38 66/21/1 65/22/1
f 65/22/1 66/21/1 67/23/39
f 66/21/1 68/24/39 67/23/39
f 67/23/39 68/24/39 70/25/40
f 67/23/39 70/25/40 69/26/40
f 69/26/40 70/25/40 71/27/41
f 70/25/40 72/28/41 71/27/41
f 71/27/41 72/28/41 74/29/42
f 71/27/41 74/29/42 73/30/42
f 73/30/42 74/29/42 75/31/26
f 74/29/42 76/32/26 75/31/26
f 75/31/26 76/32/26 78/33/43
f 75/31/26 78/33/43 77/34/43
f 77/34/43 78/33/43 79/35/44
f 78/33/43 80/36/44 79/35/44
f 79/35/44 80/36/44 82/37/45
f 79/35/44 82/37/45 81/38/45
f 81/38/45 82/37/45 83/39/46
f 82/37/45 84/40/46 83/39/46
f 83/39/46 84/40/46 46/41/2
f 83/39/46 46/41/2 45/42/2
s 3
f 85/1/47 46/1/48 84/1/49
f 85/1/47 84/1/49 86/1/50
f 87/1/51 48/1/52 46/1/48
f 87/1/51 46/1/48 85/1/47
f 88/1/53 50/1/54 48/1/52
f 88/1/53 48/1/52 87/1/51
f 86/1/50 84/1/49 82/1/55
f 86/1/50 82/1/55 89/1/56
f 90/1/57 52/1/58 50/1/54
f 90/1/57 50/1/54 88/1/53
f 89/1/56 82/1/55 80/1/59
f 89/1/56 80/1/59 91/1/60
f 92/1/61 54/1/62 52/1/58
f 92/1/61 52/1/58 90/1/57
f 91/1/60 80/1/59 78/1/63
f 91/1/60 78/1/63 93/1/64
f 94/1/65 56/1/66 54/1/62
f 94/1/65 54/1/62 92/1/61
f 93/1/64 78/1/63 76/1/67
f 93/1/64 76/1/67 95/1/68
f 96/1/69 58/1/70 56/1/66
f 96/1/69 56/1/66 94/1/65
f 95/1/68 76/1/67 74/1/71
f 95/1/68 74/1/71 97/1/72
f 98/1/73 60/1/74 58/1/70
f 98/1/73 58/1/70 96/1/69
f 97/1/72 74/1/71 72/1/75
f 97/1/72 72/1/75 99/1/76
f 100/1/77 62/1/78 60/1/74
f 100/1/77 60/1/74 98/1/73
f 99/1/76 72/1/75 70/1/79
f 99/1/76 70/1/79 101/1/80
f 102/1/81 64/1/82 62/1/78
f 102/1/81 62/1/78 100/1/77
f 101/1/80 70/1/79 68/1/83
f 101/1/80 68/1/83 103/1/84
f 103/1/84 68/1/83 66/1/85
f 103/1/84 66/1/85 104/1/86
f 104/1/86 66/1/85 64/1/82
f 104/1/86 64/1/82 102/1/81
# 116 triangles in group

g Box02
s 1
f 105/1/14 106/2/14 107/41/14
f 106/2/14 108/42/14 107/41/14
s 2
f 107/1/2 108/2/2 109/41/2
f 108/2/2 110/42/2 109/41/2
s 1
f 109/1/26 110/2/26 111/41/26
f 110/2/26 112/42/26 111/41/26
s 2
f 111/1/1 112/2/1 105/41/1
f 112/2/1 106/42/1 105/41/1
s 3
f 111/1/20 105/2/20 109/41/20
f 105/2/20 107/42/20 109/41/20
f 106/1/9 112/2/9 108/41/9
f 112/2/9 110/42/9 108/41/9
# 12 triangles in group

g Duplicate01
s 1
f 113/1/14 114/2/14 115/41/14
f 114/2/14 116/42/14 115/41/14
s 2
f 115/1/2 116/2/2 117/41/2
f 116/2/2 118/42/2 117/41/2
s 1
f 117/1/26 118/2/26 119/41/26
f 118/2/26 120/42/26 119/41/26
s 2
f 119/1/1 120/2/1 113/41/1
f 120/2/1 114/42/1 113/41/1
s 3
f 119/1/20 113/2/20 117/41/20
f 113/2/20 115/42/20 117/41/20
f 114/1/9 120/2/9 116/41/9
f 120/2/9 118/42/9 116/41/9
# 12 triangles in group

# 224 triangles total

